<?xml version="1.0" encoding="UTF-8"?><!DOCTYPE svg PUBLIC "-//W3C//DTD SVG 1.1//EN" "http://www.w3.org/Graphics/SVG/1.1/DTD/svg11.dtd"><svg xmlns="http://www.w3.org/2000/svg"><symbol id="angle-double-left" viewBox="0 0 1792 1792"><path d="M1011 1376q0 13-10 23l-50 50q-10 10-23 10t-23-10L439 983q-10-10-10-23t10-23l466-466q10-10 23-10t23 10l50 50q10 10 10 23t-10 23L608 960l393 393q10 10 10 23zm384 0q0 13-10 23l-50 50q-10 10-23 10t-23-10L823 983q-10-10-10-23t10-23l466-466q10-10 23-10t23 10l50 50q10 10 10 23t-10 23L992 960l393 393q10 10 10 23z"/></symbol><symbol id="angle-double-right" viewBox="0 0 1792 1792"><path d="M979 960q0 13-10 23l-466 466q-10 10-23 10t-23-10l-50-50q-10-10-10-23t10-23l393-393-393-393q-10-10-10-23t10-23l50-50q10-10 23-10t23 10l466 466q10 10 10 23zm384 0q0 13-10 23l-466 466q-10 10-23 10t-23-10l-50-50q-10-10-10-23t10-23l393-393-393-393q-10-10-10-23t10-23l50-50q10-10 23-10t23 10l466 466q10 10 10 23z"/></symbol><symbol id="angle-left" viewBox="0 0 1792 1792"><path d="M1203 544q0 13-10 23L800 960l393 393q10 10 10 23t-10 23l-50 50q-10 10-23 10t-23-10L631 983q-10-10-10-23t10-23l466-466q10-10 23-10t23 10l50 50q10 10 10 23z"/></symbol><symbol id="angle-right" viewBox="0 0 1792 1792"><path d="M1171 960q0 13-10 23l-466 466q-10 10-23 10t-23-10l-50-50q-10-10-10-23t10-23l393-393-393-393q-10-10-10-23t10-23l50-50q10-10 23-10t23 10l466 466q10 10 10 23z"/></symbol><symbol id="calendar" viewBox="0 0 1792 1792"><path d="M192 1664h288v-288H192v288zm352 0h320v-288H544v288zm-352-352h288V992H192v320zm352 0h320V992H544v320zM192 928h288V640H192v288zm736 736h320v-288H928v288zM544 928h320V640H544v288zm768 736h288v-288h-288v288zm-384-352h320V992H928v320zM576 448V160c0-8.667-3.167-16.167-9.5-22.5S552.667 128 544 128h-64c-8.667 0-16.167 3.167-22.5 9.5S448 151.333 448 160v288c0 8.667 3.167 16.167 9.5 22.5s13.833 9.5 22.5 9.5h64c8.667 0 16.167-3.167 22.5-9.5s9.5-13.833 9.5-22.5zm736 864h288V992h-288v320zM928 928h320V640H928v288zm384 0h288V640h-288v288zm32-480V160c0-8.667-3.167-16.167-9.5-22.5s-13.833-9.5-22.5-9.5h-64c-8.667 0-16.167 3.167-22.5 9.5s-9.5 13.833-9.5 22.5v288c0 8.667 3.167 16.167 9.5 22.5s13.833 9.5 22.5 9.5h64c8.667 0 16.167-3.167 22.5-9.5s9.5-13.833 9.5-22.5zm384-64v1280c0 34.667-12.667 64.667-38 90s-55.333 38-90 38H192c-34.667 0-64.667-12.667-90-38s-38-55.333-38-90V384c0-34.667 12.667-64.667 38-90s55.333-38 90-38h128v-96c0-44 15.667-81.667 47-113S436 0 480 0h64c44 0 81.667 15.667 113 47s47 69 47 113v96h384v-96c0-44 15.667-81.667 47-113s69-47 113-47h64c44 0 81.667 15.667 113 47s47 69 47 113v96h128c34.667 0 64.667 12.667 90 38s38 55.333 38 90z"/></symbol><symbol id="chevron-right" viewBox="0 0 1792 1792"><path d="M1363 877l-742 742q-19 19-45 19t-45-19l-166-166q-19-19-19-45t19-45l531-531-531-531q-19-19-19-45t19-45L531 45q19-19 45-19t45 19l742 742q19 19 19 45t-19 45z"/></symbol><symbol id="circle-arrow-down" viewBox="0 0 48 48"><path d="M24.088 46.291c-12.424 0-22.531-10.107-22.531-22.531S11.664 1.229 24.088 1.229 46.619 11.336 46.619 23.76 36.512 46.291 24.088 46.291zm0-44.062c-11.873 0-21.531 9.659-21.531 21.531s9.659 21.531 21.531 21.531c11.872 0 21.531-9.658 21.531-21.531S35.96 2.229 24.088 2.229z"/><path d="M24.088 33.869a.502.502 0 0 1-.397-.195L11.239 17.438a.5.5 0 0 1 .794-.608l12.055 15.718L36.145 16.83a.5.5 0 0 1 .793.608L24.484 33.674a.499.499 0 0 1-.396.195z"/></symbol><symbol id="circle-arrow-up" viewBox="0 0 48 48"><path d="M24.088 1.229c12.424 0 22.531 10.107 22.531 22.531S36.512 46.291 24.088 46.291 1.557 36.184 1.557 23.76 11.664 1.229 24.088 1.229zm0 44.062c11.873 0 21.531-9.658 21.531-21.531S35.961 2.229 24.088 2.229c-11.872 0-21.531 9.658-21.531 21.531 0 11.872 9.659 21.531 21.531 21.531z"/><path d="M24.088 13.651c.155 0 .302.072.397.195l12.453 16.236a.5.5 0 1 1-.795.608L24.088 14.972 12.031 30.69a.5.5 0 0 1-.793-.608l12.453-16.236a.502.502 0 0 1 .397-.195z"/></symbol><symbol id="close" viewBox="0 0 26 26"><path d="M1 1l23.891 23.892m0-23.892L1 24.892"/></symbol><symbol id="menu" viewBox="0 0 36 27"><path d="M.84 1h34.32v5H.84zm0 10h34.32v5H.84zm0 10h34.32v5H.84z"/></symbol><symbol id="minus" viewBox="0 0 32 32"><circle cx="16" cy="16" r="15"/><path d="M24.938 16H7.062"/></symbol><symbol id="plus" viewBox="0 0 32 32"><circle cx="16" cy="16" r="15"/><path d="M16 7.063v17.875M24.938 16H7.062"/></symbol><symbol id="quote-left" viewBox="0 0 1792 1792"><path d="M832 960v384q0 80-56 136t-136 56H256q-80 0-136-56t-56-136V640q0-104 40.5-198.5T214 278t163.5-109.5T576 128h64q26 0 45 19t19 45v128q0 26-19 45t-45 19h-64q-106 0-181 75t-75 181v32q0 40 28 68t68 28h224q80 0 136 56t56 136zm896 0v384q0 80-56 136t-136 56h-384q-80 0-136-56t-56-136V640q0-104 40.5-198.5T1110 278t163.5-109.5T1472 128h64q26 0 45 19t19 45v128q0 26-19 45t-45 19h-64q-106 0-181 75t-75 181v32q0 40 28 68t68 28h224q80 0 136 56t56 136z"/></symbol><symbol id="quote-right" viewBox="0 0 1792 1792"><path d="M832 320v704q0 104-40.5 198.5T682 1386t-163.5 109.5T320 1536h-64q-26 0-45-19t-19-45v-128q0-26 19-45t45-19h64q106 0 181-75t75-181v-32q0-40-28-68t-68-28H256q-80 0-136-56T64 704V320q0-80 56-136t136-56h384q80 0 136 56t56 136zm896 0v704q0 104-40.5 198.5T1578 1386t-163.5 109.5T1216 1536h-64q-26 0-45-19t-19-45v-128q0-26 19-45t45-19h64q106 0 181-75t75-181v-32q0-40-28-68t-68-28h-224q-80 0-136-56t-56-136V320q0-80 56-136t136-56h384q80 0 136 56t56 136z"/></symbol><symbol id="search" viewBox="0 0 26 28"><path d="M18 13c0-3.859-3.141-7-7-7s-7 3.141-7 7 3.141 7 7 7 7-3.141 7-7zm8 13c0 1.094-.906 2-2 2a1.96 1.96 0 0 1-1.406-.594l-5.359-5.344a10.971 10.971 0 0 1-6.234 1.937c-6.078 0-11-4.922-11-11s4.922-11 11-11 11 4.922 11 11c0 2.219-.672 4.406-1.937 6.234l5.359 5.359c.359.359.578.875.578 1.406z"/></symbol></svg>