<?xml version="1.0" encoding="UTF-8"?><!DOCTYPE svg PUBLIC "-//W3C//DTD SVG 1.1//EN" "http://www.w3.org/Graphics/SVG/1.1/DTD/svg11.dtd"><svg xmlns="http://www.w3.org/2000/svg"><symbol id="facebook" viewBox="-463 265 32 32"><path d="M-436.3 265h-21.3c-2.9 0-5.3 2.4-5.3 5.3v21.3c0 2.9 2.4 5.3 5.3 5.3h10.7v-14h-4v-4h4v-3c0-2.8 2.2-5 5-5h5v4h-5c-.6 0-1 .4-1 1v3h5.5l-1 4h-4.5v14h6.7c2.9 0 5.3-2.4 5.3-5.3v-21.3c-.1-2.9-2.5-5.3-5.4-5.3z"/></symbol><symbol id="google" viewBox="0 0 32 32"><title>google-plus2</title><path d="M29 0H3C1.35 0 0 1.35 0 3v26c0 1.65 1.35 3 3 3h26c1.65 0 3-1.35 3-3V3c0-1.65-1.35-3-3-3zM12 24c-4.425 0-8-3.575-8-8s3.575-8 8-8c2.162 0 3.969.787 5.363 2.094l-2.175 2.088c-.594-.569-1.631-1.231-3.188-1.231-2.731 0-4.963 2.263-4.963 5.05s2.231 5.05 4.963 5.05c3.169 0 4.356-2.275 4.538-3.45h-4.537v-2.744h7.556c.069.4.125.8.125 1.325 0 4.575-3.063 7.819-7.681 7.819zm16-8h-2v2h-2v-2h-2v-2h2v-2h2v2h2v2z"/></symbol><symbol id="instagram" viewBox="-422 224.6 113.4 113.4"><path d="M-321.9 272.5h-9.9c.7 2.8 1.1 5.7 1.1 8.7 0 19.2-15.6 34.8-34.8 34.8-19.2 0-34.8-15.6-34.8-34.8 0-3 .4-5.9 1.1-8.7h-9.9v47.9c0 2.4 2 4.4 4.4 4.4h78.4c2.4 0 4.4-1.9 4.4-4.4v-47.9zm0-30.5c0-2.4-1.9-4.4-4.4-4.4h-13.1c-2.4 0-4.4 1.9-4.4 4.4v13.1c0 2.4 1.9 4.4 4.4 4.4h13.1c2.4 0 4.4-2 4.4-4.4V242zm-43.5 17.4c-12 0-21.8 9.7-21.8 21.8 0 12 9.7 21.8 21.8 21.8s21.8-9.8 21.8-21.8-9.8-21.8-21.8-21.8m43.5 78.4H-409c-7.2 0-13.1-5.9-13.1-13.1v-87.1c0-7.2 5.8-13.1 13.1-13.1h87.1c7.2 0 13.1 5.8 13.1 13.1v87.1c0 7.3-5.9 13.1-13.1 13.1"/></symbol><symbol id="linkedin" viewBox="0 0 32 32"><title>linkedin</title><path d="M29 0H3C1.35 0 0 1.35 0 3v26c0 1.65 1.35 3 3 3h26c1.65 0 3-1.35 3-3V3c0-1.65-1.35-3-3-3zM12 26H8V12h4v14zm-2-16c-1.106 0-2-.894-2-2s.894-2 2-2c1.106 0 2 .894 2 2s-.894 2-2 2zm16 16h-4v-8c0-1.106-.894-2-2-2s-2 .894-2 2v8h-4V12h4v2.481C18.825 13.35 20.087 12 21.5 12c2.488 0 4.5 2.238 4.5 5v9z"/></symbol><symbol id="mail" viewBox="0 0 32 32"><title>mail4</title><path d="M16 0C7.163 0 0 7.163 0 16s7.163 16 16 16 16-7.163 16-16S24.837 0 16 0zM8 8h16c.286 0 .563.061.817.177L16 18.463 7.183 8.176c.254-.116.531-.177.817-.177zM6 22V10c0-.042.002-.084.004-.125l5.864 6.842-5.8 5.8A1.983 1.983 0 0 1 5.999 22zm18 2H8c-.177 0-.35-.024-.517-.069l5.691-5.691L16 21.537l2.826-3.297 5.691 5.691c-.167.045-.34.069-.517.069zm2-2c0 .177-.024.35-.069.517l-5.8-5.8 5.865-6.842c.003.041.004.083.004.125v12z"/></symbol><symbol id="twitter" viewBox="-463 265 32 32"><path d="M-431 271.1c-1.2.5-2.4.9-3.8 1 1.4-.8 2.4-2.1 2.9-3.6-1.3.8-2.7 1.3-4.2 1.6-1.2-1.3-2.9-2.1-4.8-2.1-3.6 0-6.6 2.9-6.6 6.6 0 .5.1 1 .2 1.5-5.5-.3-10.3-2.9-13.5-6.9-.6 1-.9 2.1-.9 3.3 0 2.3 1.2 4.3 2.9 5.5-1.1 0-2.1-.3-3-.8v.1c0 3.2 2.3 5.8 5.3 6.4-.5.1-1.1.2-1.7.2-.4 0-.8 0-1.2-.1.8 2.6 3.3 4.5 6.1 4.6-2.2 1.8-5.1 2.8-8.2 2.8-.5 0-1.1 0-1.6-.1 2.9 1.9 6.4 3 10.1 3 12.1 0 18.7-10 18.7-18.7v-.9c1.3-1 2.4-2.1 3.3-3.4z"/></symbol><symbol id="youtube" viewBox="0 0 32 32"><title>youtube</title><path d="M31.681 9.6s-.313-2.206-1.275-3.175C29.187 5.15 27.825 5.144 27.2 5.069c-4.475-.325-11.194-.325-11.194-.325h-.012s-6.719 0-11.194.325c-.625.075-1.987.081-3.206 1.356C.631 7.394.325 9.6.325 9.6s-.319 2.588-.319 5.181v2.425c0 2.587.319 5.181.319 5.181s.313 2.206 1.269 3.175c1.219 1.275 2.819 1.231 3.531 1.369 2.563.244 10.881.319 10.881.319s6.725-.012 11.2-.331c.625-.075 1.988-.081 3.206-1.356.962-.969 1.275-3.175 1.275-3.175s.319-2.587.319-5.181v-2.425c-.006-2.588-.325-5.181-.325-5.181zM12.694 20.15v-8.994l8.644 4.513-8.644 4.481z"/></symbol></svg>