<?xml version="1.0" encoding="UTF-8"?><!DOCTYPE svg PUBLIC "-//W3C//DTD SVG 1.1//EN" "http://www.w3.org/Graphics/SVG/1.1/DTD/svg11.dtd"><svg xmlns="http://www.w3.org/2000/svg"><symbol id="arrow-down" viewBox="-1 0 19 19"><path d="M16.549 2.555c0 .08-.02.16-.061.233l-7.56 13.891a.49.49 0 0 1-.858 0L.51 2.788a.49.49 0 0 1 .43-.72h15.121c.172 0 .332.091.42.237a.508.508 0 0 1 .068.25zM8.5 15.425l6.738-12.381H1.761L8.5 15.425z"/></symbol><symbol id="arrow-left" viewBox="0 0 17 19"><path d="M15.831 17.097c-.08 0-.16-.02-.233-.06l-13.89-7.56a.49.49 0 0 1 0-.858l13.89-7.56a.487.487 0 0 1 .721.429v15.12a.49.49 0 0 1-.488.489zM2.963 9.048l12.38 6.739V2.31L2.963 9.048z"/></symbol><symbol id="arrow-right" viewBox="0 0 17 19"><path d="M1.941 1c.08 0 .16.02.233.06l13.89 7.561a.49.49 0 0 1 0 .858l-13.89 7.56a.487.487 0 0 1-.721-.429V1.488A.49.49 0 0 1 1.941 1zM14.81 9.049L2.43 2.31v13.478l12.38-6.739z"/></symbol><symbol id="arrow462" viewBox="0 0 216 146"><path d="M165.316 60.412c-1.766-2.037-4.06-3.055-6.885-3.055h-57.355l23.871-23.872c2.064-2.063 3.096-4.535 3.096-7.414 0-2.878-1.031-5.35-3.096-7.414l-6.11-6.029c-2.063-2.063-4.508-3.096-7.332-3.096-2.879 0-5.351 1.032-7.414 3.096L51.052 65.586c-2.01 2.118-3.015 4.59-3.015 7.414 0 2.879 1.005 5.323 3.015 7.332l53.039 53.121c2.118 2.01 4.589 3.016 7.414 3.016 2.878 0 5.322-1.006 7.332-3.016l6.11-6.191c2.064-1.955 3.096-4.399 3.096-7.332 0-2.934-1.031-5.379-3.096-7.334l-23.871-23.953h57.355c2.825 0 5.119-1.018 6.885-3.055 1.765-2.037 2.647-4.494 2.647-7.373V67.786c.001-2.879-.882-5.337-2.647-7.374z"/></symbol><symbol id="arrow465" viewBox="0 0 216 146"><path d="M164.95 65.668l-53.039-53.039c-2.063-2.064-4.535-3.096-7.414-3.096-2.825 0-5.269 1.032-7.333 3.096l-6.11 6.11c-2.064 1.956-3.096 4.4-3.096 7.333s1.032 5.377 3.096 7.333l23.872 23.953H57.568c-2.824 0-5.119 1.018-6.884 3.055s-2.648 4.495-2.648 7.373v10.429c0 2.879.883 5.336 2.648 7.373s4.06 3.055 6.884 3.055h57.357l-23.872 23.873c-2.064 2.062-3.096 4.534-3.096 7.413s1.032 5.351 3.096 7.414l6.11 6.11c2.119 2.01 4.563 3.015 7.333 3.015 2.825 0 5.297-1.005 7.414-3.015l53.039-53.039c2.01-2.01 3.016-4.48 3.016-7.414 0-2.987-1.006-5.432-3.015-7.332z"/></symbol><symbol id="arrow466" viewBox="0 0 216 146"><path d="M168.452 62.53l-6.109-6.11c-2.118-2.01-4.59-3.015-7.413-3.015-2.88 0-5.324 1.005-7.334 3.015l-23.953 23.953V23.017c0-2.825-1.033-5.269-3.097-7.333s-4.508-3.096-7.332-3.096h-10.429c-2.824 0-5.269 1.033-7.332 3.096-2.065 2.064-3.096 4.508-3.096 7.333v57.356L68.404 56.42c-2.01-2.01-4.454-3.015-7.333-3.015-2.824 0-5.296 1.005-7.414 3.015l-6.029 6.11c-2.064 2.063-3.096 4.536-3.096 7.414 0 2.934 1.033 5.378 3.096 7.333l53.039 53.119c2.01 2.011 4.454 3.016 7.333 3.016 2.824 0 5.296-1.005 7.413-3.016l53.039-53.119c2.01-2.01 3.016-4.454 3.016-7.333 0-2.824-1.006-5.295-3.016-7.414z"/></symbol><symbol id="arrow467" viewBox="0 0 216 146"><path d="M168.452 69.089L115.413 16.05c-2.009-2.01-4.479-3.015-7.413-3.015-2.987 0-5.432 1.005-7.333 3.015L47.628 69.089c-2.064 2.064-3.096 4.536-3.096 7.415 0 2.824 1.033 5.268 3.096 7.332l6.11 6.11c1.956 2.063 4.4 3.097 7.333 3.097s5.377-1.034 7.333-3.097l23.953-23.872v57.357c0 2.823 1.018 5.119 3.055 6.885 2.037 1.765 4.495 2.647 7.373 2.647h10.429c2.879 0 5.336-.882 7.373-2.647s3.056-4.062 3.056-6.885V66.074l23.953 23.872c1.955 2.063 4.399 3.097 7.334 3.097 2.877 0 5.35-1.034 7.413-3.097l6.109-6.11c2.01-2.119 3.016-4.562 3.016-7.332 0-2.825-1.006-5.296-3.016-7.415z"/></symbol><symbol id="check"><path d="M6.464 13.676a.502.502 0 0 1-.707 0L.797 8.721a.502.502 0 0 1 0-.707l1.405-1.407a.5.5 0 0 1 .707 0l2.849 2.848a.504.504 0 0 0 .707 0l6.629-6.626a.502.502 0 0 1 .707 0l1.404 1.404a.504.504 0 0 1 0 .707l-8.741 8.736z"/></symbol><symbol id="checkmark" viewBox="0 0 32 32"><path d="M28.48 4.277c-.371-.368-.807-.554-1.311-.554-.502 0-.939.186-1.309.554L12.278 17.862l-6.14-6.137a1.79 1.79 0 0 0-1.309-.555c-.503 0-.94.187-1.31.555L.552 14.693A1.79 1.79 0 0 0 0 16c0 .505.186.941.553 1.31l10.416 10.414c.369.369.803.553 1.31.553.502 0 .939-.184 1.31-.553l17.86-17.859c.365-.369.551-.805.551-1.31 0-.506-.186-.939-.553-1.309L28.48 4.277z"/></symbol><symbol id="chevron-circle-down" viewBox="0 0 1792 1792"><path d="M941 1299l454-454q19-19 19-45t-19-45l-102-102q-19-19-45-19t-45 19L896 960 589 653q-19-19-45-19t-45 19L397 755q-19 19-19 45t19 45l454 454q19 19 45 19t45-19zm723-403q0 209-103 385.5T1281.5 1561 896 1664t-385.5-103T231 1281.5 128 896t103-385.5T510.5 231 896 128t385.5 103T1561 510.5 1664 896z"/></symbol><symbol id="chevron-circle-up" viewBox="0 0 1792 1792"><path d="M1293 1139l102-102q19-19 19-45t-19-45L941 493q-19-19-45-19t-45 19L397 947q-19 19-19 45t19 45l102 102q19 19 45 19t45-19l307-307 307 307q19 19 45 19t45-19zm371-243q0 209-103 385.5T1281.5 1561 896 1664t-385.5-103T231 1281.5 128 896t103-385.5T510.5 231 896 128t385.5 103T1561 510.5 1664 896z"/></symbol><symbol id="chevron-down" viewBox="0 0 1792 1792"><path d="M1683 808l-742 741q-19 19-45 19t-45-19L109 808q-19-19-19-45.5t19-45.5l166-165q19-19 45-19t45 19l531 531 531-531q19-19 45-19t45 19l166 165q19 19 19 45.5t-19 45.5z"/></symbol><symbol id="chevron-left" viewBox="0 0 1792 1792"><path d="M1427 301L896 832l531 531q19 19 19 45t-19 45l-166 166q-19 19-45 19t-45-19L429 877q-19-19-19-45t19-45l742-742q19-19 45-19t45 19l166 166q19 19 19 45t-19 45z"/></symbol><symbol id="chevron-up" viewBox="0 0 1792 1792"><path d="M1683 1331l-166 165q-19 19-45 19t-45-19L896 965l-531 531q-19 19-45 19t-45-19l-166-165q-19-19-19-45.5t19-45.5l742-741q19-19 45-19t45 19l742 741q19 19 19 45.5t-19 45.5z"/></symbol><symbol id="delete" viewBox="0 0 32 32"><circle cx="16" cy="16" r="15"/><path d="M24.418 23.5L8.501 7.583M8.5 23.5L24.418 7.583"/></symbol></svg>